<svg xmlns="http://www.w3.org/2000/svg" viewBox="0 0 1024 1024">
  <defs>
    <mask id="clawchat-tray-glyph">
      <rect width="1024" height="1024" fill="#000" />
      <path
        fill="#fff"
        d="M238 184h548c105 0 190 85 190 190v218c0 105-85 190-190 190H490L274 896l34-114h-70c-105 0-190-85-190-190V374c0-105 85-190 190-190Z"
      />
      <path
        fill="#000"
        d="M360 612c-34-96 14-210 146-290-76 96-114 196-102 282-12 22-28 28-44 8Z"
      />
      <path
        fill="#000"
        d="M478 632c-36-104 14-222 146-292-78 90-114 190-102 280-14 21-30 26-44 12Z"
      />
      <path
        fill="#000"
        d="M596 612c-30-86 12-182 134-240-72 74-104 158-92 230-12 18-28 23-42 10Z"
      />
    </mask>
  </defs>
  <rect width="1024" height="1024" fill="#000" mask="url(#clawchat-tray-glyph)" />
</svg>
